<?xml version="1.0" encoding="utf-8"?>
<!-- Generator: Adobe Illustrator 21.1.0, SVG Export Plug-In . SVG Version: 6.00 Build 0)  -->
<svg version="1.1" id="Camada_1" xmlns="http://www.w3.org/2000/svg" xmlns:xlink="http://www.w3.org/1999/xlink" x="0px" y="0px"
	 viewBox="0 0 220.1 159.3" style="enable-background:new 0 0 220.1 159.3;" xml:space="preserve">
<style type="text/css">
	.st0{fill:#AE1917;}
	.st1{fill:#FFFFFF;}
	.st2{fill:#1D1D1B;}
</style>
<g>
	<polygon class="st0" points="132.8,41.2 122.7,105.6 115.5,105.6 105.1,41.2 98.4,41.2 112,117.8 125.7,117.8 139.4,41.2 	"/>
	<polygon class="st1" points="119.1,91 126.3,41.2 119.1,91 111.9,41.2 105.1,41.2 105.1,41.2 111.9,41.2 	"/>
	<polygon class="st1" points="122.7,105.6 132.8,41.2 126.3,41.2 119.1,91 111.9,41.2 105.1,41.2 115.5,105.6 	"/>
	<path class="st1" d="M7.6,41.4c-1.2,0.8-1.6,2-1.6,3.4L5.9,64.6c-0.2,5.3,1.9,10.7,6.9,13c5.6,2.8,11.8-0.1,16.1-3.5l0.1-0.4
		L29.3,45c0.1-1.3-0.5-2.5-1.6-3.1c-0.3-0.2-0.8-0.2-0.8-0.6l0.1-0.1c2.6,0.3,5.3,0.1,8,0.1c0.1,0,0.2,0,0.2,0.1
		c-0.2,0.4-0.7,0.4-1.1,0.7c-1.2,1.1-1.3,2.9-1.3,4.5l-0.4,27.7c0.1,1.5-0.1,3.5,1.3,4.4c0.4,0.3,0.8,0.3,1.2,0.6
		c0,0.1-0.1,0.2-0.2,0.2c-2.4-0.1-4.9-0.4-7.3-0.1c-0.1-0.1-0.1-0.1-0.1-0.2c1.3-0.8,1.7-2.4,1.7-4c-0.2-0.2-0.3,0.1-0.6,0.3
		c-4.9,3.6-11.5,5.9-17.6,3.5C6.5,77.6,3.4,73.1,3,68.8c-0.5-4-0.2-12.6-0.2-12.6c0.1-3.9,0.2-8-0.1-11.9C2.6,43,1.2,42,0,41.6
		c0-0.1,0.1-0.2,0.2-0.2c2.4,0,4.6,0.3,6.9-0.1h0.5V41.4z M46,76.9c0.1,0.8,0.8,1.4,1.4,1.7c0.4,0.2,1,0.2,1.3,0.5l-0.2,0.2
		c-2.6-0.2-6.7-0.1-7.9,0.1c-0.2-0.4,1-0.5,1.4-0.8c1.1-0.6,1.5-1.7,1.5-2.8l0.3-32.1c-0.6-1.1-1.8-1.9-3-2.1
		c-0.2-0.1-0.1-0.2-0.1-0.3l0.3-0.1c2.4,0.2,4.9,0.2,7.2-0.2c0.1,0.4-0.3,0.7-0.3,1.1c-0.2,0.8,0,1.5,0.4,2.2l23.6,27.5l0.2-0.1
		l0.1-25.4c-0.1-1.5-0.1-3-1.4-3.9c-0.4-0.4-1.1-0.3-1.5-0.7l0.4-0.2c2.4,0.1,5.2,0.2,7.6-0.2l0.1,0.1c0.1,0.3-0.3,0.4-0.4,0.4
		c-0.7,0.2-1.5,0.5-2,1.2c-0.9,2.6-0.4,4.9-0.6,7.8V52l-0.2,26.9c-0.1,0.3,0.1,0.6-0.1,0.7l-0.2-0.1L61.3,64.6
		C56,58.6,51.1,52.4,45.9,46.5h-0.1C45.8,51.4,45.4,72.2,46,76.9 M89.9,42.3c-1.5,1-1.2,2-1.3,3.5c0,0-0.1,29.4,0.3,31.8
		c0.2,0.9,1.1,1.3,1.8,1.8l-0.3,0.2c-2.4-0.4-5.1-0.2-7.6-0.1c-0.2-0.4,0.5-0.3,0.7-0.6c0.5-0.1,1.2-0.5,1.3-1.1l0.3-1.6V45.6
		c-0.1-1.1-0.2-2.4-1.2-3l-0.2-0.3c-0.5-0.4-1.3-0.2-1.5-0.7l0.2-0.1c2.8,0.3,5.8,0.3,8.5-0.1c0.2,0,0.3-0.1,0.6,0
		C91.2,41.9,90.4,41.9,89.9,42.3 M158.6,60.2c-2.6-0.2-5.4-0.1-8,0.2l-0.1,0.2c-0.1,5.6-0.2,11.3,0.1,16.9l0.2,0.1
		c3.8-0.3,8.7,0.3,12.7-0.5c1.2-0.3,2.2-1.5,2.7-2.6c0.1-0.1,0.2-0.1,0.2,0l0.1,0.1c-0.3,1.3-0.7,2.5-1.3,3.8c-0.3,0.6-1,0.8-1.6,1
		c-6.6,0.1-12.3-0.4-18.9,0c-0.1-0.1-0.1-0.2-0.1-0.3c0.7-0.3,1.9-0.9,2.2-2.1l0.2-1.5l0.1-10V46.2c-0.1-1.3,0-3.2-1.3-4.2
		c-0.2-0.3-0.8-0.2-0.8-0.8h0.2c4.9,0,9.6-0.1,14.6-0.2c0.3,0.1,0.8,0.1,1,0.3c0.7,0.9,0.8,1.9,0.9,3c-0.2,0.2-0.3-0.1-0.4-0.2
		c-0.7-1.3-2-1.6-3.4-1.5l-7.2,0.2l-0.2,0.1c0,5.2-0.2,10.4,0.1,15.5l0.2,0.1c3-0.1,6.1,0.1,9-0.4c0.8-0.3,1.6-1,1.9-1.8
		c0.1-0.1,0.2-0.1,0.3-0.1c-0.2,1.9-0.2,3.8-0.1,5.7c-0.1,0.1-0.2,0.1-0.2,0C161.7,62,162.2,60.5,158.6,60.2 M190.1,42.6v0.2
		c0.1,1.4,0.2,2.7-0.1,4c-0.1,0.2-0.2,0.1-0.2,0.1c-1-2-3.1-4.1-5.4-4.3c-3.1-0.7-6.4,0.3-8.1,3c-1.1,1.9-1,4.6,0,6.5
		c0.8,1.3,2.4,2.6,3.7,3.9c3.3,2.6,6.8,4.8,10.1,7.8c2.1,2.4,2.6,6.3,1.6,9.2c-0.9,3-3.7,5.9-6.8,6.5c-3.8,1-7.7-0.2-11.5-0.4
		c-0.1-2-0.3-3.9-0.4-6c0-0.2,0.2-0.2,0.4-0.2c0.3,0.6,0.3,1.2,0.6,1.8c1.6,3.5,5.4,4.2,8.9,3.9c2.6-0.2,5.4-1.9,6.3-4.5
		c1-2.4,0.3-5.3-1.3-7.2c-1.3-1.6-2.9-2.8-4.4-3.9c-3.9-3.2-10.1-6.3-10.1-12.1c-0.1-3.3,1.2-6.3,4.1-8.2
		C181.1,40.2,186.2,41.4,190.1,42.6 M218.4,45.1c2.1,2.8,2.2,7.2,0.7,10.3c-1.4,3.2-4.8,5.2-8.1,5.4c-1.6,0.2-3.2,0.1-4.7-0.2
		c-0.1-0.1-0.2-0.2-0.1-0.4l0.3-0.1c3.1,0.4,6.4,0.2,8.5-2.3c2.4-3,2.4-8,0.7-11.3c-1-2.2-3.3-3.9-5.7-4.2c-1.6-0.2-3.6,0-5.1,0.4
		l-0.1,0.2l-0.2,8.1l0.1,25.1c0.1,1.1,0.7,2.5,1.9,2.8c0.3,0.1,0.8,0.1,0.9,0.4c-0.4,0.4-1.1,0.1-1.6,0.2c-2.4-0.3-4.8-0.3-7,0.1
		c-0.2,0-0.3,0-0.4-0.1l0.1-0.3c0.8-0.3,2-0.6,2.6-1.6l0.2-1.3l0.2-16.2l-0.1-15.1c-0.1-1.4-1-2.6-2.2-3.3c-0.1-0.2,0-0.3,0.2-0.3
		C205.8,41.8,214.1,39.1,218.4,45.1"/>
	<polygon class="st2" points="111.9,41.2 126.3,41.2 119.1,91 111.9,41.2 	"/>
</g>
</svg>
