<?xml version="1.0" encoding="utf-8"?>
<!-- Generator: Adobe Illustrator 21.1.0, SVG Export Plug-In . SVG Version: 6.00 Build 0)  -->
<svg version="1.1" id="Camada_1" xmlns="http://www.w3.org/2000/svg" xmlns:xlink="http://www.w3.org/1999/xlink" x="0px" y="0px"
	 viewBox="0 0 224.7 115" style="enable-background:new 0 0 224.7 115;" xml:space="preserve">
<style type="text/css">
	.st0{fill:#FFFFFF;}
</style>
<g>
	<polygon class="st0" points="135.6,18.6 125.3,84.2 118,84.2 107.4,18.6 100.5,18.6 114.4,96.7 128.4,96.7 142.3,18.6 	"/>
	<polygon class="st0" points="121.6,69.3 128.9,18.6 121.6,69.3 114.3,18.6 107.4,18.6 107.4,18.6 114.3,18.6 	"/>
	<path class="st0" d="M7.9,18.7c-1.3,0.8-1.7,2-1.6,3.5L6.2,42.5C6,47.8,8.1,53.3,13.2,55.7c5.7,2.9,12-0.1,16.4-3.6l0.1-0.4
		L30,22.4c0.1-1.3-0.5-2.5-1.6-3.1c-0.3-0.2-0.8-0.2-0.9-0.5l0.1-0.1c2.7,0.3,5.4,0.1,8.1,0.1c0.1,0,0.2,0,0.2,0.1
		c-0.2,0.4-0.7,0.4-1.1,0.7c-1.2,1.2-1.3,2.9-1.3,4.6l-0.4,28.3C33.2,54,33,56,34.5,57c0.4,0.3,0.8,0.3,1.2,0.5
		c0,0.1-0.1,0.2-0.2,0.2c-2.5-0.1-5-0.5-7.5-0.1c-0.1,0-0.1-0.1-0.1-0.2c1.4-0.9,1.7-2.4,1.7-4.1c-0.2-0.2-0.3,0.1-0.6,0.3
		c-5,3.7-11.8,6-18,3.5C6.7,55.6,3.5,51,3.2,46.7C2.6,42.6,3,33.9,3,33.9c0.1-4,0.2-8.2-0.1-12.2c-0.2-1.3-1.6-2.4-2.8-2.8
		c0-0.1,0.1-0.2,0.2-0.2c2.4,0,4.8,0.3,7.1-0.1h0.5L7.9,18.7L7.9,18.7z M47.1,55c0.1,0.8,0.8,1.4,1.4,1.8c0.4,0.2,1,0.2,1.3,0.5
		l-0.2,0.2c-2.7-0.3-6.9-0.1-8,0.1c-0.2-0.5,1-0.5,1.4-0.8c1.2-0.5,1.5-1.7,1.5-2.8l0.3-32.8c-0.6-1.2-1.9-2-3.1-2.2
		c-0.3-0.1-0.2-0.3-0.2-0.3l0.3-0.1c2.4,0.2,5,0.2,7.4-0.2c0.1,0.5-0.3,0.7-0.3,1.1c-0.2,0.8,0,1.6,0.5,2.2l24.1,28.1l0.2-0.1
		l0.1-25.9c-0.1-1.5-0.1-3.1-1.4-3.9c-0.4-0.4-1.2-0.3-1.6-0.7l0.4-0.2c2.5,0.1,5.3,0.2,7.8-0.2l0.1,0.1c0.1,0.3-0.3,0.4-0.5,0.5
		c-0.7,0.2-1.6,0.5-2,1.3c-0.9,2.7-0.4,5-0.6,8v1L75.8,57c-0.1,0.3,0.1,0.6-0.1,0.7l-0.2-0.1L62.6,42.5
		c-5.4-6.2-10.4-12.5-15.8-18.5h-0.1C46.9,28.9,46.4,50.1,47.1,55 M91.8,19.7c-1.6,1-1.2,2-1.3,3.6c0,0-0.1,30,0.3,32.5
		c0.2,0.9,1.2,1.4,1.9,1.8l-0.3,0.2c-2.4-0.5-5.2-0.2-7.8-0.1c-0.2-0.5,0.5-0.3,0.7-0.5c0.5-0.1,1.2-0.5,1.3-1.1l0.3-1.6V23
		c-0.1-1.1-0.2-2.5-1.2-3.1l-0.2-0.3c-0.5-0.4-1.3-0.2-1.6-0.7l0.2-0.1c2.9,0.3,5.9,0.3,8.7-0.1c0.2,0,0.3-0.1,0.5,0
		C93.1,19.3,92.3,19.3,91.8,19.7 M161.9,37.9c-2.7-0.2-5.5-0.1-8.1,0.2l-0.1,0.2c-0.1,5.6-0.2,11.6,0.1,17.3l0.2,0.1
		c3.9-0.3,8.8,0.3,12.9-0.5c1.2-0.3,2.3-1.6,2.8-2.7c0.1-0.1,0.2-0.1,0.2,0l0.1,0.1c-0.3,1.4-0.7,2.6-1.3,3.9c-0.3,0.5-1,0.9-1.6,1
		c-6.7,0.1-12.5-0.4-19.3,0c-0.1-0.1-0.1-0.2-0.1-0.3c0.7-0.3,2-0.9,2.3-2.1l0.2-1.5l0.1-10.3V23.5c-0.1-1.4,0-3.3-1.4-4.2
		c-0.2-0.3-0.9-0.2-0.9-0.8h0.2c5,0,9.8-0.1,14.8-0.2c0.3,0.1,0.8,0.1,1,0.3c0.7,0.9,0.8,2,0.9,3.1c-0.2,0.2-0.3-0.1-0.5-0.2
		c-0.7-1.3-2-1.6-3.4-1.6l-7.3,0.4l-0.2,0.1c0,5.3-0.2,10.6,0.1,15.8l0.2,0.1c3.1-0.1,6.3,0.1,9.2-0.4c0.9-0.3,1.6-1,2-1.8
		c0.1-0.1,0.2-0.1,0.3-0.1c-0.2,2-0.2,3.9-0.1,5.9c-0.1,0.1-0.2,0.1-0.2,0C165.1,39.7,165.6,38.2,161.9,37.9 M194.1,20v0.2
		c0.1,1.4,0.2,2.8-0.1,4.2c-0.1,0.2-0.2,0.1-0.2,0.1c-1-2-3.2-4.2-5.5-4.4c-3.1-0.7-6.5,0.3-8.2,3.1c-1.1,2-1,4.7,0,6.6
		c0.9,1.4,2.5,2.7,3.7,3.9c3.4,2.7,6.9,4.9,10.3,8c2.2,2.4,2.7,6.5,1.6,9.4c-0.9,3.1-3.7,6-6.9,6.6c-3.9,1-7.9-0.2-11.8-0.4
		c-0.1-2-0.3-4-0.5-6.1c0-0.2,0.2-0.2,0.4-0.2c0.3,0.5,0.3,1.2,0.5,1.8c1.6,3.6,5.5,4.2,9.1,4c2.7-0.2,5.5-1.9,6.5-4.6
		c1-2.5,0.3-5.4-1.3-7.4c-1.3-1.6-3-2.9-4.4-3.9c-4-3.3-10.3-6.4-10.3-12.3c-0.1-3.3,1.2-6.5,4.2-8.4
		C184.9,17.6,190.1,18.6,194.1,20 M223,22.5c2.1,2.9,2.2,7.3,0.7,10.5c-1.4,3.3-4.9,5.3-8.3,5.5c-1.6,0.2-3.3,0.1-4.8-0.2
		c-0.1-0.1-0.2-0.2-0.1-0.4l0.3-0.1c3.1,0.5,6.6,0.2,8.6-2.3c2.5-3.1,2.4-8.2,0.7-11.5c-1-2.3-3.4-4-5.8-4.3c-1.6-0.2-3.7,0-5.2,0.4
		l-0.1,0.2l-0.2,8.2l0.1,25.6c0.1,1.2,0.7,2.5,2,2.9c0.3,0.1,0.8,0.1,0.9,0.5c-0.4,0.4-1.2,0.1-1.6,0.2c-2.4-0.3-4.9-0.3-7.1,0.1
		c-0.2,0-0.3,0-0.4-0.1l0.1-0.3c0.9-0.3,2-0.6,2.7-1.6l0.1-1.3l0.2-16.5l-0.1-15.4c-0.1-1.4-1-2.7-2.2-3.4c-0.1-0.2,0-0.3,0.2-0.3
		C210.1,19.1,218.6,16.3,223,22.5"/>
	<polygon class="st0" points="114.3,18.6 128.9,18.6 121.6,69.3 	"/>
</g>
</svg>
